<svg id="Layer_1" data-name="Layer 1" xmlns="http://www.w3.org/2000/svg" viewBox="0 0 265.38 48.07"><defs><style>.cls-1{fill:#fff;}.cls-2{fill:#ff9311;}</style></defs><title>iprint_logo_secondary_RGB_2-color-reverse</title><path class="cls-1" d="M257.69 17.39a4 4 0 0 1 .87-1.25 4 4 0 0 1 1.27-.83 4 4 0 0 1 1.54-.3 3.94 3.94 0 0 1 1.54.3 4 4 0 0 1 2.12 2.09 3.82 3.82 0 0 1 .32 1.56 3.91 3.91 0 0 1-.32 1.59 4 4 0 0 1-.86 1.26 3.87 3.87 0 0 1-1.26.83 4 4 0 0 1-1.54.3 4 4 0 0 1-1.54-.3 3.92 3.92 0 0 1-1.27-.83 4 4 0 0 1-.87-1.27 3.92 3.92 0 0 1-.32-1.59 3.83 3.83 0 0 1 .32-1.56zm.65 2.91a3.3 3.3 0 0 0 .69 1.08 3.19 3.19 0 0 0 1 .72 3.23 3.23 0 0 0 1.3.26 3.17 3.17 0 0 0 1.28-.26 3.21 3.21 0 0 0 1-.72 3.31 3.31 0 0 0 .69-1.08 3.6 3.6 0 0 0 .25-1.35 3.5 3.5 0 0 0-.25-1.33 3.22 3.22 0 0 0-1.61-1.77 3.17 3.17 0 0 0-1.28-.26 3.22 3.22 0 0 0-3 2 3.5 3.5 0 0 0-.25 1.33 3.6 3.6 0 0 0 .21 1.39zm3.35-3.65a1.9 1.9 0 0 1 1.23.33 1.22 1.22 0 0 1 .4 1 1.13 1.13 0 0 1-.35.92 1.57 1.57 0 0 1-.87.35l1.33 2h-.78l-1.26-2h-.76v2h-.72v-4.6zm-.32 2.06h.46a1.17 1.17 0 0 0 .39-.09.61.61 0 0 0 .27-.23.78.78 0 0 0 .1-.43.67.67 0 0 0-.09-.37.61.61 0 0 0-.23-.21 1 1 0 0 0-.33-.1h-1.37v1.48z"/><path class="cls-2" d="M7.03 12.73c4.22 0 7-2 7-6.36S11.25.04 7.03.04s-7 2-7 6.36 2.78 6.33 7 6.33z"/><path class="cls-1" d="M.94 47.27h12.18v-32L.94 16.8v30.47zM31.69 36.04h-1.88v11.25H17.09V5.43h15.33c10.71 0 16.8 6 16.8 15 0 10.04-6.02 15.61-17.53 15.61zm-.54-20.55h-1.68V26.4h1.47c3.75-.07 5.49-2 5.49-5.69.01-3.43-1.87-5.24-5.28-5.24zM75.07 34.69l5.82 12.59H68.77l-3.95-10-1.47.13v9.84H51.3V14.94h16.54c8.3 0 12.59 4.28 12.59 10.85a9.69 9.69 0 0 1-5.36 8.9zM64.76 22.97h-1.47v7.57l1.61-.07c2-.07 3.48-1.34 3.48-3.95-.01-2.14-1.08-3.55-3.62-3.55zM82.97 47.27V15.04h12.39v32.27zM117.6 47.61l-7.23-14.39v14.06h-11V14.94h13.19l7.1 14.13V14.94h11.13v32.67zM153.28 25.04v22.23h-12.45V25.04h-7.5v-10.1h27.58v10.1z"/><path class="cls-2" d="M162.69 48.04c-3.27 0-5.46-2.14-5.46-5.62s2.2-5.62 5.46-5.62 5.52 2.14 5.52 5.62-2.18 5.62-5.52 5.62z"/><path class="cls-1" d="M182.19 48.04c-7.23 0-12.05-4.28-12.05-13.07 0-8.46 4.55-13.61 12.16-13.61a15.88 15.88 0 0 1 8.14 2.09l-1.45 7.34a9.37 9.37 0 0 0-4.93-1.87c-2.63 0-4 2.46-4 5.68 0 3.8 1.71 5.84 4.29 5.84a7.89 7.89 0 0 0 4.82-1.82l1.18 7.39c-1.78 1.26-4.94 2.03-8.16 2.03zM203.55 48.04c-7 0-12.48-4.5-12.48-13.23s5.84-13.45 12.8-13.45 12.48 4.66 12.48 13.23-5.84 13.45-12.8 13.45zm.14-19.2c-1.82 0-2.79 2.2-2.79 5.95s1 5.78 2.79 5.78 2.79-2.14 2.79-5.89-.95-5.84-2.79-5.84zM245.69 47.27V32.92c0-2.36-.8-3.11-2-3.11a3.1 3.1 0 0 0-2 1v16.45h-9.75V32.92c0-2.36-.75-3.11-1.93-3.11a3 3 0 0 0-2 1v16.45h-9.75V22.85l9.75-1.18v3.59c1.82-2.63 3.91-3.86 6.64-3.86a6.56 6.56 0 0 1 6.54 4.77c1.82-3.11 4.23-4.77 7.23-4.77 4.39 0 7.07 3.32 7.07 8.62v17.25z"/></svg>