<svg xmlns="http://www.w3.org/2000/svg" viewBox="0 0 149 18.03">
    <g>
        <g>
            <path d="M66.64,0C66,0,65.41.38,65.41.85l.42,4.72a.91.91,0,0,0,1.63,0L67.87.85C67.87.38,67.33,0,66.64,0Z" fill="#fdbb30" />
            <polygon points="66.64 6.07 66.64 6.07 66.64 6.07 66.64 6.07" fill="#fdbb30" />
            <polygon points="64.09 7.54 64.09 7.54 64.09 7.54 64.09 7.54" fill="#fdbb30" />
            <path d="M60.18,3.87c-.4-.23-1,0-1.35.64S58.55,5.77,59,6l4.29,2a.78.78,0,0,0,.84-.46.77.77,0,0,0,0-1Z" fill="#fdbb30" />
            <polygon points="69.19 7.54 69.19 7.54 69.19 7.54 69.19 7.54" fill="#fdbb30" />
            <path d="M73.1,3.87,69.22,6.59a.77.77,0,0,0,0,1A.78.78,0,0,0,70,8l4.29-2c.4-.23.46-.9.12-1.49S73.5,3.63,73.1,3.87Z" fill="#fdbb30" />
            <polygon points="66.64 11.96 66.64 11.96 66.64 11.96 66.64 11.96" fill="#fdbb30" />
            <path d="M66.64,12a.77.77,0,0,0-.81.5l-.42,4.72c0,.47.55.85,1.23.85s1.23-.38,1.23-.85l-.42-4.72A.77.77,0,0,0,66.64,12Z" fill="#fdbb30" />
            <path d="M74.33,12,70,10a.77.77,0,0,0-.84.45h0a.78.78,0,0,0,0,1l3.88,2.72c.4.23,1,0,1.35-.64S74.73,12.27,74.33,12Z" fill="#fdbb30" />
            <path d="M64.09,10.49a.77.77,0,0,0-.85-.45L59,12c-.4.23-.46.9-.12,1.49s.95.87,1.35.64l3.88-2.72a.77.77,0,0,0,0-1Z" fill="#fdbb30" />
            <path d="M75.84,13.2h0a.68.68,0,1,0,.68.67A.67.67,0,0,0,75.84,13.2Zm0,1.23a.56.56,0,0,1,0-1.11h0a.54.54,0,0,1,.53.56A.53.53,0,0,1,75.84,14.43Z" fill="#fdbb30" />
            <path d="M76,13.9h0a.18.18,0,0,0,.07-.32.35.35,0,0,0-.22-.05l-.24,0v.71h.13V14h.08c.1,0,.15,0,.16.11a.48.48,0,0,0,.05.19h.14a.52.52,0,0,1-.05-.18A.21.21,0,0,0,76,13.9Zm-.18-.05h-.09v-.22h.1c.13,0,.17,0,.17.11S75.9,13.85,75.8,13.85Z" fill="#fdbb30" />
            <path d="M44.3,9.56c0-1.78-.76-3.35-3.33-3.35a6.09,6.09,0,0,0-2.94.7l.42,1.43a4.31,4.31,0,0,1,2.14-.6c1.3,0,1.52.74,1.52,1.21v.11c-2.84,0-4.64,1-4.64,3A2.37,2.37,0,0,0,40,14.43a2.85,2.85,0,0,0,2.29-1h0s.32,1.36,2.12.84a11.48,11.48,0,0,1-.12-1.89Zm-2.12,1.88a1.39,1.39,0,0,1-1.49,1.43,1,1,0,0,1-1.06-1c0-1.08,1.19-1.38,2.54-1.37Z" fill="#fff" />
            <path d="M11.28,3.78l-.94,4.52c-.25,1.32-.48,2.35-.66,3.55h0C9.49,10.67,9.28,9.68,9,8.39L8,3.78H5.72L4.66,8.28c-.3,1.37-.58,2.47-.75,3.63h0c-.18-1.1-.42-2.48-.68-3.8,0,0-.62-3.21-.84-4.32H0s1.86,7.61,2.15,8.85c.35,1.44,1,2,2.77,1.62L6.08,9.53c.29-1.17.49-2,.68-3.2h0a31.29,31.29,0,0,0,.56,3.21s.47,2.14.71,3.27.92,1.83,2.68,1.45L13.52,3.78Z" fill="#fff" />
            <path d="M19.86,9.56c0-1.78-.76-3.35-3.33-3.35a6.09,6.09,0,0,0-2.94.7L14,8.34a4.31,4.31,0,0,1,2.14-.6c1.31,0,1.52.74,1.52,1.21v.11c-2.84,0-4.64,1-4.64,3a2.37,2.37,0,0,0,2.5,2.37,2.85,2.85,0,0,0,2.29-1h0s.32,1.36,2.12.84a11.49,11.49,0,0,1-.12-1.89Zm-2.12,1.88a1.39,1.39,0,0,1-1.49,1.43,1,1,0,0,1-1.06-1c0-1.08,1.19-1.38,2.54-1.37Z" fill="#fff" />
            <polygon points="21.28 14.25 23.4 14.25 23.4 12.03 23.4 3.78 21.28 3.78 21.28 14.25" fill="#fff" />
            <path d="M53.3,3.78H51.2V11.5a3.24,3.24,0,0,0,.63,2.27,2.35,2.35,0,0,0,1.73.66,5.05,5.05,0,0,0,1.54-.23l0-1.66a3.24,3.24,0,0,1-.81.1c-.72,0-1-.46-1-1.42v-3h1.85v-2H53.3Z" fill="#fff" />
            <path d="M47.7,7.87h-.06V6.39H45.72v7.86h2.19v-4a3,3,0,0,1,0-.58,1.65,1.65,0,0,1,1.73-1.38,4,4,0,0,1,.63.06V6.26a2.11,2.11,0,0,0-.48,0A2.31,2.31,0,0,0,47.7,7.87Z" fill="#fff" />
            <path d="M34,6.21a2.85,2.85,0,0,0-1.55.43,3.31,3.31,0,0,0-1,1h0a2.24,2.24,0,0,0-2.17-1.41,2.47,2.47,0,0,0-2.29,1.25h0V6.39h-2v7.86H27V9.64a1.85,1.85,0,0,1,.1-.64,1.45,1.45,0,0,1,1.3-1c.86,0,1.27.73,1.27,1.78v4.48h2.13V9.58a2.19,2.19,0,0,1,.09-.64,1.35,1.35,0,0,1,1.28-1c.87,0,1.29.72,1.29,2v4.31h2.14V9.62C36.62,7.18,35.38,6.21,34,6.21Z" fill="#fff" />
            <path d="M84.19,4.69a4.25,4.25,0,0,0-2.9-.86,15.48,15.48,0,0,0-2.56.2V14.25h1.34V10.1a4.59,4.59,0,0,0,1.07.09A4.29,4.29,0,0,0,84.3,9.06a3,3,0,0,0,.8-2.21A2.78,2.78,0,0,0,84.19,4.69Zm-3,4.44A4.48,4.48,0,0,1,80.06,9V5a5.6,5.6,0,0,1,1.26-.11c1.47,0,2.44.66,2.44,2S82.78,9.12,81.17,9.12Z" fill="#fff" />
            <path d="M89.5,6.7a1.46,1.46,0,0,0-.38,0,2.23,2.23,0,0,0-2.06,1.63H87l0-1.46H85.77c0,.69.06,1.44.06,2.32v5.11h1.34v-4a3.81,3.81,0,0,1,.06-.63A1.89,1.89,0,0,1,89,7.93a2,2,0,0,1,.46,0Z" fill="#fff" />
            <path d="M93.08,6.65a3.63,3.63,0,0,0-3.68,3.94A3.53,3.53,0,0,0,93,14.42a3.63,3.63,0,0,0,3.7-3.94A3.52,3.52,0,0,0,93.08,6.65ZM93,13.4c-1.32,0-2.26-1.23-2.26-2.85,0-1.41.69-2.89,2.29-2.89s2.23,1.6,2.23,2.85C95.27,12.19,94.31,13.4,93,13.4Z" fill="#fff" />
            <path d="M105.75,6.65a2.53,2.53,0,0,0-1.64.52,3.06,3.06,0,0,0-.83,1h0a2.2,2.2,0,0,0-2.1-1.49A2.56,2.56,0,0,0,98.82,8h0l-.06-1.2H97.53c0,.61.06,1.24.06,2v5.42h1.32V9.77A1.86,1.86,0,0,1,99,9.11a1.85,1.85,0,0,1,1.67-1.35c1,0,1.55.86,1.55,2v4.45h1.32V9.66a2.22,2.22,0,0,1,.11-.68,1.75,1.75,0,0,1,1.6-1.23c1.09,0,1.61.86,1.61,2.29v4.21h1.32V9.87C108.19,7.3,106.74,6.65,105.75,6.65Z" fill="#fff" />
            <path d="M112.77,6.65a3.63,3.63,0,0,0-3.68,3.94,3.53,3.53,0,0,0,3.56,3.82,3.63,3.63,0,0,0,3.7-3.94A3.52,3.52,0,0,0,112.77,6.65Zm-.06,6.75c-1.32,0-2.26-1.23-2.26-2.85,0-1.41.69-2.89,2.29-2.89S115,9.26,115,10.52C115,12.19,114,13.4,112.71,13.4Z" fill="#fff" />
            <path d="M122.91,8.39c-1.43-.55-2.06-1-2.06-2,0-.71.54-1.55,1.95-1.55a4.12,4.12,0,0,1,2,.49l.37-1.09a4.7,4.7,0,0,0-2.29-.51c-2,0-3.35,1.2-3.35,2.81,0,1.46,1,2.33,2.73,2.93,1.4.54,1.95,1.09,1.95,2.06s-.8,1.77-2.16,1.77a4.73,4.73,0,0,1-2.39-.68l-.34,1.12a5.35,5.35,0,0,0,2.64.66c2.44,0,3.62-1.38,3.62-3S124.66,9.06,122.91,8.39Z" fill="#fff" />
            <path d="M130.29,6.65a2.78,2.78,0,0,0-1.38.38,2.51,2.51,0,0,0-1,1h0V3.35h-1.35v10.9h1.35V9.77a1.63,1.63,0,0,1,.09-.64,1.94,1.94,0,0,1,1.81-1.35c1.27,0,1.72,1,1.72,2.21v4.27h1.35V9.83C132.89,7.27,131.29,6.65,130.29,6.65Z" fill="#fff" />
            <path d="M137.46,6.65a3.63,3.63,0,0,0-3.68,3.94,3.53,3.53,0,0,0,3.56,3.82,3.63,3.63,0,0,0,3.7-3.94A3.52,3.52,0,0,0,137.46,6.65Zm-.06,6.75c-1.32,0-2.26-1.23-2.26-2.85,0-1.41.69-2.89,2.29-2.89s2.23,1.6,2.23,2.85C139.65,12.19,138.69,13.4,137.4,13.4Z" fill="#fff" />
            <path d="M145.85,6.65a2.92,2.92,0,0,0-2.64,1.44h0l-.06-1.27h-1.21c0,.71.06,1.47.06,2.42v8h1.34v-4h0a2.6,2.6,0,0,0,2.29,1.17c1.75,0,3.38-1.32,3.38-4C149,8.17,147.65,6.65,145.85,6.65Zm-.46,6.71a2.08,2.08,0,0,1-2-1.58,3.05,3.05,0,0,1-.06-.55V10a2.19,2.19,0,0,1,.09-.55,2.15,2.15,0,0,1,2-1.67c1.43,0,2.21,1.27,2.21,2.76C147.65,12.19,146.82,13.36,145.39,13.36Z" fill="#fff" />
        </g>
    </g>
</svg>